<svg width="23" height="22" viewBox="0 0 23 22" fill="none" xmlns="http://www.w3.org/2000/svg">
<g clip-path="url(#clip0_681_11)">
<path d="M6.83273 13.5956C6.74557 13.6029 6.65831 13.6096 6.57116 13.6178C6.46241 13.628 6.35398 13.6434 6.24493 13.6497C5.87565 13.6708 5.50564 13.6768 5.13676 13.6493C4.43087 13.5968 3.7441 13.465 3.09361 13.1927C1.82994 12.6638 1.00914 11.7738 0.640263 10.524C0.570373 10.2873 0.540567 10.0393 0.504183 9.79499C0.45783 9.48368 0.421035 9.17093 0.385062 8.85837C0.351967 8.57127 0.325039 8.28349 0.296055 7.9959C0.270874 7.74668 0.245693 7.49746 0.222362 7.24805C0.198209 6.989 0.175597 6.72995 0.153602 6.47071C0.127291 6.16037 0.101699 5.84983 0.0772372 5.5394C0.0605869 5.32807 0.0448617 5.11664 0.0316031 4.90522C0.0204001 4.7257 0.0115611 4.54609 0.00467488 4.36639C-0.0110504 3.95713 0.0118694 3.55106 0.13356 3.15472C0.221026 2.87002 0.35577 2.60924 0.58394 2.398C0.821875 2.17761 1.11182 2.06134 1.4405 2.02066C1.93837 1.95905 2.41311 2.05691 2.87901 2.20615C3.52158 2.41198 4.1102 2.71721 4.66758 3.0773C5.32701 3.50333 5.9222 4.0009 6.48914 4.52922C7.60984 5.57362 8.60372 6.718 9.52124 7.92205C10.1228 8.71154 10.6867 9.52388 11.1835 10.3759C11.2788 10.5392 11.3672 10.706 11.4593 10.8708C11.4685 10.8873 11.4816 10.9019 11.4992 10.9262C11.5188 10.8995 11.536 10.8811 11.5474 10.8598C12.1281 9.77464 12.8342 8.76245 13.589 7.77898C14.3381 6.80293 15.144 5.87008 16.0252 4.99574C16.6236 4.40215 17.2518 3.83855 17.9448 3.34166C18.5595 2.90097 19.2168 2.52922 19.9411 2.26708C20.2448 2.15717 20.5561 2.07204 20.8782 2.02799C21.164 1.98894 21.4506 1.98576 21.7342 2.04939C22.1901 2.15158 22.5136 2.40832 22.7209 2.79849C22.8631 3.06612 22.9335 3.35293 22.9701 3.64785C23.0146 4.00659 23.0034 4.36581 22.9771 4.72512C22.9524 5.06458 22.9329 5.40442 22.9072 5.74388C22.8857 6.02886 22.8585 6.31337 22.8339 6.59816C22.8108 6.86367 22.789 7.12937 22.7643 7.39479C22.7417 7.63774 22.7161 7.8805 22.6913 8.12335C22.6682 8.3502 22.6459 8.57705 22.6206 8.80371C22.5949 9.03345 22.5698 9.26339 22.5376 9.49236C22.4975 9.7785 22.4639 10.0665 22.4032 10.349C22.2818 10.9139 22.0292 11.4279 21.6662 11.8925C21.1529 12.5492 20.4713 12.996 19.667 13.2859C19.2413 13.4393 18.8011 13.5389 18.3492 13.598C17.9757 13.6469 17.6004 13.6728 17.2243 13.6663C16.8999 13.6607 16.5749 13.6464 16.2531 13.5992C16.2248 13.595 16.1953 13.5986 16.1654 13.6153C16.3342 13.6504 16.5035 13.6837 16.6717 13.7211C17.4199 13.8866 18.1442 14.1131 18.8152 14.4726C19.2315 14.6956 19.6095 14.964 19.9164 15.3133C20.182 15.6159 20.3674 15.9548 20.4458 16.3427C20.5276 16.7469 20.482 17.1413 20.3464 17.5292C20.1918 17.9712 19.9438 18.3658 19.6338 18.725C19.05 19.4015 18.3745 19.9845 17.5869 20.4485C17.2318 20.6577 16.8536 20.8218 16.4452 20.9173C15.6126 21.1121 14.8528 20.9608 14.1639 20.4861C13.7253 20.1839 13.3745 19.8038 13.0678 19.3859C12.668 18.8412 12.3503 18.255 12.0911 17.6418C11.916 17.2275 11.7622 16.8053 11.5973 16.3871C11.5744 16.3291 11.5669 16.2616 11.5065 16.2209C11.4488 16.2342 11.4438 16.2815 11.4297 16.318C11.3704 16.4719 11.3148 16.6269 11.2576 16.7815C10.9983 17.4829 10.7004 18.1688 10.3104 18.8167C10.0128 19.3109 9.67088 19.7748 9.23325 20.171C8.86376 20.5055 8.44709 20.7679 7.94912 20.9058C7.61971 20.9971 7.28465 21.0176 6.94466 20.9824C6.37464 20.9234 5.86547 20.7111 5.38415 20.4318C4.87776 20.1378 4.4283 19.777 4.00434 19.3868C3.65139 19.0619 3.32517 18.7162 3.06052 18.3225C2.8381 17.9917 2.66338 17.6416 2.57478 17.257C2.41352 16.5572 2.57221 15.9263 3.04119 15.3637C3.3519 14.991 3.74523 14.7099 4.17917 14.4758C4.70396 14.1927 5.26472 13.9903 5.84656 13.8394C6.17165 13.7551 6.50116 13.6859 6.82862 13.6098C6.82995 13.6052 6.83139 13.6004 6.83273 13.5958V13.5956Z" fill="#69696F"/>
</g>
<defs>
<clipPath id="clip0_681_11">
<rect width="23" height="19" fill="white" transform="translate(0 2)"/>
</clipPath>
</defs>
</svg>
