<svg width="190" height="190" viewBox="0 0 190 190" fill="none" xmlns="http://www.w3.org/2000/svg">
<path d="M95 190C82.0167 190 69.7458 187.506 58.1875 182.519C46.6292 177.531 36.5354 170.723 27.9062 162.094C19.2771 153.465 12.4688 143.371 7.48125 131.812C2.49375 120.254 0 107.983 0 95C0 81.8583 2.49375 69.5479 7.48125 58.0688C12.4688 46.5896 19.2771 36.5354 27.9062 27.9062C36.5354 19.2771 46.6292 12.4688 58.1875 7.48125C69.7458 2.49375 82.0167 0 95 0C108.142 0 120.452 2.49375 131.931 7.48125C143.41 12.4688 153.465 19.2771 162.094 27.9062C170.723 36.5354 177.531 46.5896 182.519 58.0688C187.506 69.5479 190 81.8583 190 95C190 107.983 187.506 120.254 182.519 131.812C177.531 143.371 170.723 153.465 162.094 162.094C153.465 170.723 143.41 177.531 131.931 182.519C120.452 187.506 108.142 190 95 190ZM95 170.525C99.1167 164.825 102.679 158.888 105.688 152.713C108.696 146.538 111.15 139.967 113.05 133H76.95C78.85 139.967 81.3042 146.538 84.3125 152.713C87.3208 158.888 90.8833 164.825 95 170.525ZM70.3 166.725C67.45 161.5 64.9563 156.077 62.8188 150.456C60.6813 144.835 58.9 139.017 57.475 133H29.45C34.0417 140.917 39.7812 147.804 46.6687 153.663C53.5562 159.521 61.4333 163.875 70.3 166.725ZM119.7 166.725C128.567 163.875 136.444 159.521 143.331 153.663C150.219 147.804 155.958 140.917 160.55 133H132.525C131.1 139.017 129.319 144.835 127.181 150.456C125.044 156.077 122.55 161.5 119.7 166.725ZM21.375 114H53.675C53.2 110.833 52.8437 107.706 52.6062 104.619C52.3687 101.531 52.25 98.325 52.25 95C52.25 91.675 52.3687 88.4688 52.6062 85.3813C52.8437 82.2938 53.2 79.1667 53.675 76H21.375C20.5833 79.1667 19.9896 82.2938 19.5938 85.3813C19.1979 88.4688 19 91.675 19 95C19 98.325 19.1979 101.531 19.5938 104.619C19.9896 107.706 20.5833 110.833 21.375 114ZM72.675 114H117.325C117.8 110.833 118.156 107.706 118.394 104.619C118.631 101.531 118.75 98.325 118.75 95C118.75 91.675 118.631 88.4688 118.394 85.3813C118.156 82.2938 117.8 79.1667 117.325 76H72.675C72.2 79.1667 71.8437 82.2938 71.6062 85.3813C71.3687 88.4688 71.25 91.675 71.25 95C71.25 98.325 71.3687 101.531 71.6062 104.619C71.8437 107.706 72.2 110.833 72.675 114ZM136.325 114H168.625C169.417 110.833 170.01 107.706 170.406 104.619C170.802 101.531 171 98.325 171 95C171 91.675 170.802 88.4688 170.406 85.3813C170.01 82.2938 169.417 79.1667 168.625 76H136.325C136.8 79.1667 137.156 82.2938 137.394 85.3813C137.631 88.4688 137.75 91.675 137.75 95C137.75 98.325 137.631 101.531 137.394 104.619C137.156 107.706 136.8 110.833 136.325 114ZM132.525 57H160.55C155.958 49.0833 150.219 42.1958 143.331 36.3375C136.444 30.4792 128.567 26.125 119.7 23.275C122.55 28.5 125.044 33.9229 127.181 39.5437C129.319 45.1646 131.1 50.9833 132.525 57ZM76.95 57H113.05C111.15 50.0333 108.696 43.4625 105.688 37.2875C102.679 31.1125 99.1167 25.175 95 19.475C90.8833 25.175 87.3208 31.1125 84.3125 37.2875C81.3042 43.4625 78.85 50.0333 76.95 57ZM29.45 57H57.475C58.9 50.9833 60.6813 45.1646 62.8188 39.5437C64.9563 33.9229 67.45 28.5 70.3 23.275C61.4333 26.125 53.5562 30.4792 46.6687 36.3375C39.7812 42.1958 34.0417 49.0833 29.45 57Z" fill="#65085C"/>
</svg>
