<svg width="56" height="56" viewBox="0 0 56 56" fill="none" xmlns="http://www.w3.org/2000/svg">
<path d="M28 53C24.5833 53 21.3542 52.3437 18.3125 51.0312C15.2708 49.7187 12.6146 47.9271 10.3438 45.6562C8.07292 43.3854 6.28125 40.7292 4.96875 37.6875C3.65625 34.6458 3 31.4167 3 28C3 24.5417 3.65625 21.3021 4.96875 18.2813C6.28125 15.2604 8.07292 12.6146 10.3438 10.3438C12.6146 8.07292 15.2708 6.28125 18.3125 4.96875C21.3542 3.65625 24.5833 3 28 3C31.4583 3 34.6979 3.65625 37.7187 4.96875C40.7396 6.28125 43.3854 8.07292 45.6562 10.3438C47.9271 12.6146 49.7187 15.2604 51.0312 18.2813C52.3437 21.3021 53 24.5417 53 28C53 31.4167 52.3437 34.6458 51.0312 37.6875C49.7187 40.7292 47.9271 43.3854 45.6562 45.6562C43.3854 47.9271 40.7396 49.7187 37.7187 51.0312C34.6979 52.3437 31.4583 53 28 53ZM28 47.875C29.0833 46.375 30.0208 44.8125 30.8125 43.1875C31.6042 41.5625 32.25 39.8333 32.75 38H23.25C23.75 39.8333 24.3958 41.5625 25.1875 43.1875C25.9792 44.8125 26.9167 46.375 28 47.875ZM21.5 46.875C20.75 45.5 20.0938 44.0729 19.5313 42.5938C18.9688 41.1146 18.5 39.5833 18.125 38H10.75C11.9583 40.0833 13.4687 41.8958 15.2812 43.4375C17.0937 44.9792 19.1667 46.125 21.5 46.875ZM34.5 46.875C36.8333 46.125 38.9063 44.9792 40.7188 43.4375C42.5313 41.8958 44.0417 40.0833 45.25 38H37.875C37.5 39.5833 37.0312 41.1146 36.4687 42.5938C35.9062 44.0729 35.25 45.5 34.5 46.875ZM8.625 33H17.125C17 32.1667 16.9062 31.3437 16.8437 30.5312C16.7812 29.7187 16.75 28.875 16.75 28C16.75 27.125 16.7812 26.2813 16.8437 25.4688C16.9062 24.6563 17 23.8333 17.125 23H8.625C8.41667 23.8333 8.26042 24.6563 8.15625 25.4688C8.05208 26.2813 8 27.125 8 28C8 28.875 8.05208 29.7187 8.15625 30.5312C8.26042 31.3437 8.41667 32.1667 8.625 33ZM22.125 33H33.875C34 32.1667 34.0938 31.3437 34.1563 30.5312C34.2188 29.7187 34.25 28.875 34.25 28C34.25 27.125 34.2188 26.2813 34.1563 25.4688C34.0938 24.6563 34 23.8333 33.875 23H22.125C22 23.8333 21.9062 24.6563 21.8437 25.4688C21.7812 26.2813 21.75 27.125 21.75 28C21.75 28.875 21.7812 29.7187 21.8437 30.5312C21.9062 31.3437 22 32.1667 22.125 33ZM38.875 33H47.375C47.5833 32.1667 47.7396 31.3437 47.8438 30.5312C47.9479 29.7187 48 28.875 48 28C48 27.125 47.9479 26.2813 47.8438 25.4688C47.7396 24.6563 47.5833 23.8333 47.375 23H38.875C39 23.8333 39.0938 24.6563 39.1563 25.4688C39.2188 26.2813 39.25 27.125 39.25 28C39.25 28.875 39.2188 29.7187 39.1563 30.5312C39.0938 31.3437 39 32.1667 38.875 33ZM37.875 18H45.25C44.0417 15.9167 42.5313 14.1042 40.7188 12.5625C38.9063 11.0208 36.8333 9.875 34.5 9.125C35.25 10.5 35.9062 11.9271 36.4687 13.4062C37.0312 14.8854 37.5 16.4167 37.875 18ZM23.25 18H32.75C32.25 16.1667 31.6042 14.4375 30.8125 12.8125C30.0208 11.1875 29.0833 9.625 28 8.125C26.9167 9.625 25.9792 11.1875 25.1875 12.8125C24.3958 14.4375 23.75 16.1667 23.25 18ZM10.75 18H18.125C18.5 16.4167 18.9688 14.8854 19.5313 13.4062C20.0938 11.9271 20.75 10.5 21.5 9.125C19.1667 9.875 17.0937 11.0208 15.2812 12.5625C13.4687 14.1042 11.9583 15.9167 10.75 18Z" fill="#65085C"/>
</svg>
