<svg width="1200" height="630" viewBox="0 0 1200 630" fill="none" xmlns="http://www.w3.org/2000/svg">
<rect width="1200" height="630" fill="white"/>
<path d="M600.5 368C593.325 368 586.544 366.622 580.156 363.866C573.769 361.109 568.191 357.347 563.422 352.578C558.653 347.809 554.891 342.231 552.134 335.844C549.378 329.456 548 322.675 548 315.5C548 308.238 549.378 301.434 552.134 295.091C554.891 288.747 558.653 283.191 563.422 278.422C568.191 273.653 573.769 269.891 580.156 267.134C586.544 264.378 593.325 263 600.5 263C607.762 263 614.566 264.378 620.909 267.134C627.253 269.891 632.809 273.653 637.578 278.422C642.347 283.191 646.109 288.747 648.866 295.091C651.622 301.434 653 308.238 653 315.5C653 322.675 651.622 329.456 648.866 335.844C646.109 342.231 642.347 347.809 637.578 352.578C632.809 357.347 627.253 361.109 620.909 363.866C614.566 366.622 607.762 368 600.5 368ZM600.5 357.238C602.775 354.088 604.744 350.806 606.406 347.394C608.069 343.981 609.425 340.35 610.475 336.5H590.525C591.575 340.35 592.931 343.981 594.594 347.394C596.256 350.806 598.225 354.088 600.5 357.238ZM586.85 355.138C585.275 352.25 583.897 349.253 582.716 346.147C581.534 343.041 580.55 339.825 579.763 336.5H564.275C566.813 340.875 569.984 344.681 573.791 347.919C577.597 351.156 581.95 353.563 586.85 355.138ZM614.15 355.138C619.05 353.563 623.403 351.156 627.209 347.919C631.016 344.681 634.187 340.875 636.725 336.5H621.237C620.45 339.825 619.466 343.041 618.284 346.147C617.103 349.253 615.725 352.25 614.15 355.138ZM559.812 326H577.663C577.4 324.25 577.203 322.522 577.072 320.816C576.941 319.109 576.875 317.337 576.875 315.5C576.875 313.663 576.941 311.891 577.072 310.184C577.203 308.478 577.4 306.75 577.663 305H559.812C559.375 306.75 559.047 308.478 558.828 310.184C558.609 311.891 558.5 313.663 558.5 315.5C558.5 317.337 558.609 319.109 558.828 320.816C559.047 322.522 559.375 324.25 559.812 326ZM588.163 326H612.838C613.1 324.25 613.297 322.522 613.428 320.816C613.559 319.109 613.625 317.337 613.625 315.5C613.625 313.663 613.559 311.891 613.428 310.184C613.297 308.478 613.1 306.75 612.838 305H588.163C587.9 306.75 587.703 308.478 587.572 310.184C587.441 311.891 587.375 313.663 587.375 315.5C587.375 317.337 587.441 319.109 587.572 320.816C587.703 322.522 587.9 324.25 588.163 326ZM623.338 326H641.188C641.625 324.25 641.953 322.522 642.172 320.816C642.391 319.109 642.5 317.337 642.5 315.5C642.5 313.663 642.391 311.891 642.172 310.184C641.953 308.478 641.625 306.75 641.188 305H623.338C623.6 306.75 623.797 308.478 623.928 310.184C624.059 311.891 624.125 313.663 624.125 315.5C624.125 317.337 624.059 319.109 623.928 320.816C623.797 322.522 623.6 324.25 623.338 326ZM621.237 294.5H636.725C634.187 290.125 631.016 286.319 627.209 283.081C623.403 279.844 619.05 277.438 614.15 275.863C615.725 278.75 617.103 281.747 618.284 284.853C619.466 287.959 620.45 291.175 621.237 294.5ZM590.525 294.5H610.475C609.425 290.65 608.069 287.019 606.406 283.606C604.744 280.194 602.775 276.912 600.5 273.762C598.225 276.912 596.256 280.194 594.594 283.606C592.931 287.019 591.575 290.65 590.525 294.5ZM564.275 294.5H579.763C580.55 291.175 581.534 287.959 582.716 284.853C583.897 281.747 585.275 278.75 586.85 275.863C581.95 277.438 577.597 279.844 573.791 283.081C569.984 286.319 566.813 290.125 564.275 294.5Z" fill="#65085C"/>
<path d="M930.863 583.24C929.759 583.24 928.759 582.984 927.863 582.472C926.983 581.944 926.279 581.232 925.751 580.336C925.239 579.44 924.983 578.44 924.983 577.336C924.983 576.232 925.239 575.24 925.751 574.36C926.279 573.464 926.983 572.76 927.863 572.248C928.759 571.736 929.759 571.48 930.863 571.48C931.711 571.48 932.503 571.64 933.239 571.96C933.975 572.28 934.599 572.728 935.111 573.304L934.007 574.432C933.623 574 933.159 573.672 932.615 573.448C932.071 573.208 931.487 573.088 930.863 573.088C930.063 573.088 929.351 573.272 928.727 573.64C928.103 574.008 927.615 574.512 927.263 575.152C926.911 575.776 926.735 576.504 926.735 577.336C926.735 578.152 926.911 578.888 927.263 579.544C927.615 580.184 928.103 580.688 928.727 581.056C929.351 581.424 930.063 581.608 930.863 581.608C931.503 581.608 932.095 581.496 932.639 581.272C933.183 581.032 933.647 580.696 934.031 580.264L935.159 581.392C934.631 581.984 933.991 582.44 933.239 582.76C932.503 583.08 931.711 583.24 930.863 583.24ZM937.517 583V571.72H939.221V583H937.517ZM938.357 569.272C938.037 569.272 937.765 569.16 937.541 568.936C937.317 568.696 937.205 568.416 937.205 568.096C937.205 567.76 937.317 567.48 937.541 567.256C937.765 567.032 938.037 566.92 938.357 566.92C938.709 566.92 938.989 567.032 939.197 567.256C939.421 567.48 939.533 567.76 939.533 568.096C939.533 568.416 939.421 568.696 939.197 568.936C938.989 569.16 938.709 569.272 938.357 569.272ZM944.378 583V566.968H946.058V583H944.378ZM941.522 573.232V571.72H948.89V573.232H941.522ZM951.204 583V571.72H952.908V583H951.204ZM952.044 569.272C951.724 569.272 951.452 569.16 951.228 568.936C951.004 568.696 950.892 568.416 950.892 568.096C950.892 567.76 951.004 567.48 951.228 567.256C951.452 567.032 951.724 566.92 952.044 566.92C952.396 566.92 952.676 567.032 952.884 567.256C953.108 567.48 953.22 567.76 953.22 568.096C953.22 568.416 953.108 568.696 952.884 568.936C952.676 569.16 952.396 569.272 952.044 569.272ZM955.329 582.064L962.457 572.632H964.449L957.321 582.064H955.329ZM955.329 583V582.064L956.793 581.464H964.305V583H955.329ZM955.737 573.232V571.72H964.449V572.632L962.865 573.232H955.737ZM971.904 583.24C970.768 583.24 969.752 582.984 968.856 582.472C967.96 581.96 967.248 581.256 966.72 580.36C966.208 579.464 965.952 578.456 965.952 577.336C965.952 576.232 966.208 575.24 966.72 574.36C967.232 573.464 967.928 572.76 968.808 572.248C969.688 571.736 970.672 571.48 971.76 571.48C972.784 571.48 973.688 571.712 974.472 572.176C975.272 572.64 975.896 573.288 976.344 574.12C976.808 574.936 977.04 575.88 977.04 576.952C977.04 577.08 977.032 577.232 977.016 577.408C977 577.568 976.968 577.76 976.92 577.984H967.152V576.544H976.008L975.408 577.072C975.424 576.24 975.28 575.528 974.976 574.936C974.688 574.328 974.264 573.864 973.704 573.544C973.16 573.208 972.496 573.04 971.712 573.04C970.896 573.04 970.184 573.216 969.576 573.568C968.968 573.92 968.488 574.416 968.136 575.056C967.8 575.68 967.632 576.424 967.632 577.288C967.632 578.152 967.808 578.912 968.16 579.568C968.528 580.224 969.032 580.736 969.672 581.104C970.328 581.472 971.08 581.656 971.928 581.656C972.616 581.656 973.248 581.536 973.824 581.296C974.4 581.04 974.888 580.664 975.288 580.168L976.368 581.272C975.84 581.896 975.184 582.384 974.4 582.736C973.632 583.072 972.8 583.24 971.904 583.24ZM987.818 583V576.376C987.818 575.384 987.522 574.584 986.93 573.976C986.354 573.352 985.586 573.04 984.626 573.04C983.97 573.04 983.394 573.184 982.898 573.472C982.402 573.76 982.01 574.152 981.722 574.648C981.434 575.144 981.29 575.712 981.29 576.352L980.522 575.92C980.522 575.072 980.722 574.312 981.122 573.64C981.522 572.968 982.058 572.44 982.73 572.056C983.418 571.672 984.202 571.48 985.082 571.48C985.946 571.48 986.714 571.688 987.386 572.104C988.058 572.52 988.578 573.08 988.946 573.784C989.33 574.488 989.522 575.256 989.522 576.088V583H987.818ZM979.61 583V571.72H981.29V583H979.61ZM996.121 583.24C995.513 583.24 994.929 583.16 994.369 583C993.809 582.824 993.297 582.584 992.833 582.28C992.385 581.976 991.993 581.616 991.657 581.2L992.737 580.096C993.185 580.64 993.689 581.048 994.249 581.32C994.825 581.576 995.465 581.704 996.169 581.704C996.921 581.704 997.505 581.56 997.921 581.272C998.353 580.984 998.569 580.584 998.569 580.072C998.569 579.592 998.417 579.216 998.113 578.944C997.809 578.672 997.417 578.456 996.937 578.296C996.473 578.136 995.977 577.984 995.449 577.84C994.921 577.68 994.417 577.488 993.937 577.264C993.457 577.024 993.065 576.696 992.761 576.28C992.473 575.864 992.329 575.32 992.329 574.648C992.329 574.008 992.481 573.456 992.785 572.992C993.105 572.512 993.553 572.144 994.129 571.888C994.721 571.616 995.417 571.48 996.217 571.48C997.065 571.48 997.833 571.632 998.521 571.936C999.209 572.24 999.761 572.688 1000.18 573.28L999.097 574.36C998.761 573.928 998.337 573.6 997.825 573.376C997.329 573.136 996.769 573.016 996.145 573.016C995.425 573.016 994.873 573.16 994.489 573.448C994.121 573.72 993.937 574.08 993.937 574.528C993.937 574.96 994.089 575.304 994.393 575.56C994.697 575.8 995.081 576 995.545 576.16C996.025 576.304 996.529 576.456 997.057 576.616C997.585 576.76 998.089 576.96 998.569 577.216C999.049 577.456 999.433 577.792 999.721 578.224C1000.02 578.64 1000.18 579.208 1000.18 579.928C1000.18 580.936 999.809 581.744 999.073 582.352C998.353 582.944 997.369 583.24 996.121 583.24ZM1007.95 583.24C1006.86 583.24 1005.87 582.976 1004.97 582.448C1004.09 581.92 1003.39 581.208 1002.86 580.312C1002.35 579.416 1002.09 578.416 1002.09 577.312C1002.09 576.224 1002.35 575.24 1002.86 574.36C1003.39 573.48 1004.09 572.784 1004.97 572.272C1005.87 571.744 1006.86 571.48 1007.95 571.48C1009.05 571.48 1010.04 571.736 1010.92 572.248C1011.8 572.76 1012.5 573.464 1013.01 574.36C1013.54 575.24 1013.8 576.224 1013.8 577.312C1013.8 578.432 1013.54 579.44 1013.01 580.336C1012.5 581.216 1011.8 581.92 1010.92 582.448C1010.04 582.976 1009.05 583.24 1007.95 583.24ZM1007.95 581.608C1008.75 581.608 1009.45 581.424 1010.06 581.056C1010.68 580.688 1011.17 580.176 1011.52 579.52C1011.89 578.864 1012.08 578.128 1012.08 577.312C1012.08 576.496 1011.89 575.776 1011.52 575.152C1011.17 574.512 1010.68 574.008 1010.06 573.64C1009.45 573.272 1008.75 573.088 1007.95 573.088C1007.16 573.088 1006.46 573.272 1005.84 573.64C1005.21 574.008 1004.72 574.512 1004.37 575.152C1004.02 575.776 1003.84 576.496 1003.84 577.312C1003.84 578.144 1004.02 578.888 1004.37 579.544C1004.72 580.184 1005.21 580.688 1005.84 581.056C1006.46 581.424 1007.16 581.608 1007.95 581.608ZM1017.74 583V569.8C1017.74 569.016 1017.9 568.32 1018.24 567.712C1018.59 567.104 1019.07 566.632 1019.68 566.296C1020.3 565.944 1021.01 565.768 1021.79 565.768C1022.4 565.768 1022.94 565.88 1023.4 566.104C1023.86 566.312 1024.29 566.608 1024.67 566.992L1023.57 568.096C1023.31 567.84 1023.04 567.656 1022.75 567.544C1022.48 567.416 1022.16 567.352 1021.79 567.352C1021.04 567.352 1020.46 567.576 1020.04 568.024C1019.64 568.456 1019.44 569.064 1019.44 569.848V583H1017.74ZM1014.9 573.232V571.72H1023.21V573.232H1014.9ZM1026.62 583V566.968H1028.3V583H1026.62ZM1023.76 573.232V571.72H1031.13V573.232H1023.76ZM1041.65 583V576.376C1041.65 575.384 1041.36 574.584 1040.77 573.976C1040.19 573.352 1039.42 573.04 1038.46 573.04C1037.81 573.04 1037.23 573.184 1036.73 573.472C1036.24 573.76 1035.85 574.152 1035.56 574.648C1035.27 575.144 1035.13 575.712 1035.13 576.352L1034.36 575.92C1034.36 575.072 1034.56 574.312 1034.96 573.64C1035.36 572.968 1035.89 572.44 1036.57 572.056C1037.25 571.672 1038.04 571.48 1038.92 571.48C1039.78 571.48 1040.55 571.68 1041.22 572.08C1041.89 572.464 1042.41 573 1042.78 573.688C1043.17 574.376 1043.36 575.176 1043.36 576.088V583H1041.65ZM1033.45 583V566.008H1035.13V583H1033.45ZM1051.71 583.24C1050.57 583.24 1049.56 582.984 1048.66 582.472C1047.76 581.96 1047.05 581.256 1046.52 580.36C1046.01 579.464 1045.76 578.456 1045.76 577.336C1045.76 576.232 1046.01 575.24 1046.52 574.36C1047.04 573.464 1047.73 572.76 1048.61 572.248C1049.49 571.736 1050.48 571.48 1051.56 571.48C1052.59 571.48 1053.49 571.712 1054.28 572.176C1055.08 572.64 1055.7 573.288 1056.15 574.12C1056.61 574.936 1056.84 575.88 1056.84 576.952C1056.84 577.08 1056.84 577.232 1056.82 577.408C1056.8 577.568 1056.77 577.76 1056.72 577.984H1046.96V576.544H1055.81L1055.21 577.072C1055.23 576.24 1055.08 575.528 1054.78 574.936C1054.49 574.328 1054.07 573.864 1053.51 573.544C1052.96 573.208 1052.3 573.04 1051.52 573.04C1050.7 573.04 1049.99 573.216 1049.38 573.568C1048.77 573.92 1048.29 574.416 1047.94 575.056C1047.6 575.68 1047.44 576.424 1047.44 577.288C1047.44 578.152 1047.61 578.912 1047.96 579.568C1048.33 580.224 1048.84 580.736 1049.48 581.104C1050.13 581.472 1050.88 581.656 1051.73 581.656C1052.42 581.656 1053.05 581.536 1053.63 581.296C1054.2 581.04 1054.69 580.664 1055.09 580.168L1056.17 581.272C1055.64 581.896 1054.99 582.384 1054.2 582.736C1053.44 583.072 1052.6 583.24 1051.71 583.24ZM1059.41 583V571.72H1061.12V583H1059.41ZM1060.25 569.272C1059.93 569.272 1059.66 569.16 1059.44 568.936C1059.21 568.696 1059.1 568.416 1059.1 568.096C1059.1 567.76 1059.21 567.48 1059.44 567.256C1059.66 567.032 1059.93 566.92 1060.25 566.92C1060.61 566.92 1060.89 567.032 1061.09 567.256C1061.32 567.48 1061.43 567.76 1061.43 568.096C1061.43 568.416 1061.32 568.696 1061.09 568.936C1060.89 569.16 1060.61 569.272 1060.25 569.272ZM1072.73 583V576.376C1072.73 575.384 1072.44 574.584 1071.84 573.976C1071.27 573.352 1070.5 573.04 1069.54 573.04C1068.88 573.04 1068.31 573.184 1067.81 573.472C1067.32 573.76 1066.92 574.152 1066.64 574.648C1066.35 575.144 1066.2 575.712 1066.2 576.352L1065.44 575.92C1065.44 575.072 1065.64 574.312 1066.04 573.64C1066.44 572.968 1066.97 572.44 1067.64 572.056C1068.33 571.672 1069.12 571.48 1070 571.48C1070.86 571.48 1071.63 571.688 1072.3 572.104C1072.97 572.52 1073.49 573.08 1073.86 573.784C1074.24 574.488 1074.44 575.256 1074.44 576.088V583H1072.73ZM1064.52 583V571.72H1066.2V583H1064.52ZM1079.19 583V566.968H1080.87V583H1079.19ZM1076.33 573.232V571.72H1083.7V573.232H1076.33ZM1090.83 583.24C1089.69 583.24 1088.67 582.984 1087.78 582.472C1086.88 581.96 1086.17 581.256 1085.64 580.36C1085.13 579.464 1084.87 578.456 1084.87 577.336C1084.87 576.232 1085.13 575.24 1085.64 574.36C1086.15 573.464 1086.85 572.76 1087.73 572.248C1088.61 571.736 1089.59 571.48 1090.68 571.48C1091.71 571.48 1092.61 571.712 1093.39 572.176C1094.19 572.64 1094.82 573.288 1095.27 574.12C1095.73 574.936 1095.96 575.88 1095.96 576.952C1095.96 577.08 1095.95 577.232 1095.94 577.408C1095.92 577.568 1095.89 577.76 1095.84 577.984H1086.07V576.544H1094.93L1094.33 577.072C1094.35 576.24 1094.2 575.528 1093.9 574.936C1093.61 574.328 1093.19 573.864 1092.63 573.544C1092.08 573.208 1091.42 573.04 1090.63 573.04C1089.82 573.04 1089.11 573.216 1088.5 573.568C1087.89 573.92 1087.41 574.416 1087.06 575.056C1086.72 575.68 1086.55 576.424 1086.55 577.288C1086.55 578.152 1086.73 578.912 1087.08 579.568C1087.45 580.224 1087.95 580.736 1088.59 581.104C1089.25 581.472 1090 581.656 1090.85 581.656C1091.54 581.656 1092.17 581.536 1092.75 581.296C1093.32 581.04 1093.81 580.664 1094.21 580.168L1095.29 581.272C1094.76 581.896 1094.11 582.384 1093.32 582.736C1092.55 583.072 1091.72 583.24 1090.83 583.24ZM1098.53 583V571.72H1100.21V583H1098.53ZM1100.21 576.424L1099.52 576.112C1099.52 574.688 1099.86 573.56 1100.55 572.728C1101.25 571.896 1102.21 571.48 1103.43 571.48C1103.99 571.48 1104.5 571.584 1104.96 571.792C1105.43 571.984 1105.86 572.296 1106.26 572.728L1105.16 573.904C1104.88 573.6 1104.58 573.384 1104.24 573.256C1103.92 573.128 1103.56 573.064 1103.14 573.064C1102.28 573.064 1101.57 573.352 1101.03 573.928C1100.48 574.488 1100.21 575.32 1100.21 576.424ZM1108.42 583.24C1108.02 583.24 1107.69 583.104 1107.43 582.832C1107.18 582.56 1107.05 582.232 1107.05 581.848C1107.05 581.464 1107.18 581.144 1107.43 580.888C1107.69 580.616 1108.02 580.48 1108.42 580.48C1108.8 580.48 1109.12 580.616 1109.38 580.888C1109.63 581.144 1109.76 581.464 1109.76 581.848C1109.76 582.232 1109.63 582.56 1109.38 582.832C1109.12 583.104 1108.8 583.24 1108.42 583.24ZM1121.79 583V576.376C1121.79 575.384 1121.49 574.584 1120.9 573.976C1120.32 573.352 1119.56 573.04 1118.6 573.04C1117.94 573.04 1117.36 573.184 1116.87 573.472C1116.37 573.76 1115.98 574.152 1115.69 574.648C1115.4 575.144 1115.26 575.712 1115.26 576.352L1114.49 575.92C1114.49 575.072 1114.69 574.312 1115.09 573.64C1115.49 572.968 1116.03 572.44 1116.7 572.056C1117.39 571.672 1118.17 571.48 1119.05 571.48C1119.92 571.48 1120.68 571.688 1121.36 572.104C1122.03 572.52 1122.55 573.08 1122.92 573.784C1123.3 574.488 1123.49 575.256 1123.49 576.088V583H1121.79ZM1113.58 583V571.72H1115.26V583H1113.58ZM1131.84 583.24C1130.71 583.24 1129.69 582.984 1128.79 582.472C1127.9 581.96 1127.19 581.256 1126.66 580.36C1126.15 579.464 1125.89 578.456 1125.89 577.336C1125.89 576.232 1126.15 575.24 1126.66 574.36C1127.17 573.464 1127.87 572.76 1128.75 572.248C1129.63 571.736 1130.61 571.48 1131.7 571.48C1132.72 571.48 1133.63 571.712 1134.41 572.176C1135.21 572.64 1135.83 573.288 1136.28 574.12C1136.75 574.936 1136.98 575.88 1136.98 576.952C1136.98 577.08 1136.97 577.232 1136.95 577.408C1136.94 577.568 1136.91 577.76 1136.86 577.984H1127.09V576.544H1135.95L1135.35 577.072C1135.36 576.24 1135.22 575.528 1134.91 574.936C1134.63 574.328 1134.2 573.864 1133.64 573.544C1133.1 573.208 1132.43 573.04 1131.65 573.04C1130.83 573.04 1130.12 573.216 1129.51 573.568C1128.91 573.92 1128.43 574.416 1128.07 575.056C1127.74 575.68 1127.57 576.424 1127.57 577.288C1127.57 578.152 1127.75 578.912 1128.1 579.568C1128.47 580.224 1128.97 580.736 1129.61 581.104C1130.27 581.472 1131.02 581.656 1131.87 581.656C1132.55 581.656 1133.19 581.536 1133.76 581.296C1134.34 581.04 1134.83 580.664 1135.23 580.168L1136.31 581.272C1135.78 581.896 1135.12 582.384 1134.34 582.736C1133.57 583.072 1132.74 583.24 1131.84 583.24ZM1140.88 583V566.968H1142.56V583H1140.88ZM1138.02 573.232V571.72H1145.39V573.232H1138.02Z" fill="#080806"/>
<path d="M1043.51 64.24C1042.29 64.24 1041.18 63.896 1040.17 63.208C1039.16 62.504 1038.35 61.512 1037.75 60.232C1037.15 58.952 1036.86 57.448 1036.86 55.72C1036.86 53.976 1037.15 52.48 1037.75 51.232C1038.34 49.968 1039.13 48.992 1040.12 48.304C1041.13 47.6 1042.24 47.248 1043.46 47.248C1044.69 47.248 1045.8 47.592 1046.79 48.28C1047.8 48.968 1048.6 49.952 1049.19 51.232C1049.79 52.496 1050.08 54 1050.08 55.744C1050.08 57.472 1049.79 58.976 1049.19 60.256C1048.6 61.536 1047.81 62.52 1046.82 63.208C1045.83 63.896 1044.72 64.24 1043.51 64.24ZM1043.46 62.584C1044.4 62.584 1045.23 62.32 1045.95 61.792C1046.69 61.248 1047.27 60.472 1047.68 59.464C1048.1 58.44 1048.31 57.192 1048.31 55.72C1048.31 54.264 1048.1 53.032 1047.68 52.024C1047.27 51 1046.69 50.224 1045.95 49.696C1045.23 49.168 1044.4 48.904 1043.46 48.904C1042.53 48.904 1041.7 49.168 1040.96 49.696C1040.24 50.224 1039.67 50.992 1039.26 52C1038.84 53.008 1038.63 54.248 1038.63 55.72C1038.63 57.192 1038.84 58.44 1039.26 59.464C1039.67 60.472 1040.24 61.248 1040.96 61.792C1041.7 62.32 1042.53 62.584 1043.46 62.584ZM1059.28 64.24C1058.06 64.24 1056.95 63.896 1055.94 63.208C1054.94 62.504 1054.13 61.512 1053.52 60.232C1052.93 58.952 1052.63 57.448 1052.63 55.72C1052.63 53.976 1052.93 52.48 1053.52 51.232C1054.11 49.968 1054.9 48.992 1055.9 48.304C1056.9 47.6 1058.02 47.248 1059.23 47.248C1060.46 47.248 1061.58 47.592 1062.57 48.28C1063.58 48.968 1064.38 49.952 1064.97 51.232C1065.56 52.496 1065.86 54 1065.86 55.744C1065.86 57.472 1065.56 58.976 1064.97 60.256C1064.38 61.536 1063.58 62.52 1062.59 63.208C1061.6 63.896 1060.5 64.24 1059.28 64.24ZM1059.23 62.584C1060.18 62.584 1061.01 62.32 1061.73 61.792C1062.46 61.248 1063.04 60.472 1063.46 59.464C1063.87 58.44 1064.08 57.192 1064.08 55.72C1064.08 54.264 1063.87 53.032 1063.46 52.024C1063.04 51 1062.46 50.224 1061.73 49.696C1061.01 49.168 1060.18 48.904 1059.23 48.904C1058.3 48.904 1057.47 49.168 1056.74 49.696C1056.02 50.224 1055.45 50.992 1055.03 52C1054.62 53.008 1054.41 54.248 1054.41 55.72C1054.41 57.192 1054.62 58.44 1055.03 59.464C1055.45 60.472 1056.02 61.248 1056.74 61.792C1057.47 62.32 1058.3 62.584 1059.23 62.584ZM1075.05 64.24C1073.84 64.24 1072.72 63.896 1071.72 63.208C1070.71 62.504 1069.9 61.512 1069.29 60.232C1068.7 58.952 1068.4 57.448 1068.4 55.72C1068.4 53.976 1068.7 52.48 1069.29 51.232C1069.88 49.968 1070.68 48.992 1071.67 48.304C1072.68 47.6 1073.79 47.248 1075 47.248C1076.24 47.248 1077.35 47.592 1078.34 48.28C1079.35 48.968 1080.15 49.952 1080.74 51.232C1081.33 52.496 1081.63 54 1081.63 55.744C1081.63 57.472 1081.33 58.976 1080.74 60.256C1080.15 61.536 1079.36 62.52 1078.36 63.208C1077.37 63.896 1076.27 64.24 1075.05 64.24ZM1075 62.584C1075.95 62.584 1076.78 62.32 1077.5 61.792C1078.24 61.248 1078.81 60.472 1079.23 59.464C1079.64 58.44 1079.85 57.192 1079.85 55.72C1079.85 54.264 1079.64 53.032 1079.23 52.024C1078.81 51 1078.24 50.224 1077.5 49.696C1076.78 49.168 1075.95 48.904 1075 48.904C1074.08 48.904 1073.24 49.168 1072.51 49.696C1071.79 50.224 1071.22 50.992 1070.8 52C1070.39 53.008 1070.18 54.248 1070.18 55.72C1070.18 57.192 1070.39 58.44 1070.8 59.464C1071.22 60.472 1071.79 61.248 1072.51 61.792C1073.24 62.32 1074.08 62.584 1075 62.584ZM1090.83 64.24C1089.61 64.24 1088.5 63.896 1087.49 63.208C1086.48 62.504 1085.67 61.512 1085.07 60.232C1084.47 58.952 1084.18 57.448 1084.18 55.72C1084.18 53.976 1084.47 52.48 1085.07 51.232C1085.66 49.968 1086.45 48.992 1087.44 48.304C1088.45 47.6 1089.56 47.248 1090.78 47.248C1092.01 47.248 1093.12 47.592 1094.11 48.28C1095.12 48.968 1095.92 49.952 1096.51 51.232C1097.11 52.496 1097.4 54 1097.4 55.744C1097.4 57.472 1097.11 58.976 1096.51 60.256C1095.92 61.536 1095.13 62.52 1094.14 63.208C1093.15 63.896 1092.04 64.24 1090.83 64.24ZM1090.78 62.584C1091.72 62.584 1092.55 62.32 1093.27 61.792C1094.01 61.248 1094.59 60.472 1095 59.464C1095.42 58.44 1095.63 57.192 1095.63 55.72C1095.63 54.264 1095.42 53.032 1095 52.024C1094.59 51 1094.01 50.224 1093.27 49.696C1092.55 49.168 1091.72 48.904 1090.78 48.904C1089.85 48.904 1089.02 49.168 1088.28 49.696C1087.56 50.224 1086.99 50.992 1086.58 52C1086.16 53.008 1085.95 54.248 1085.95 55.72C1085.95 57.192 1086.16 58.44 1086.58 59.464C1086.99 60.472 1087.56 61.248 1088.28 61.792C1089.02 62.32 1089.85 62.584 1090.78 62.584ZM1106.6 64.24C1105.38 64.24 1104.27 63.896 1103.26 63.208C1102.26 62.504 1101.45 61.512 1100.84 60.232C1100.25 58.952 1099.95 57.448 1099.95 55.72C1099.95 53.976 1100.25 52.48 1100.84 51.232C1101.43 49.968 1102.22 48.992 1103.22 48.304C1104.22 47.6 1105.34 47.248 1106.55 47.248C1107.78 47.248 1108.9 47.592 1109.89 48.28C1110.9 48.968 1111.7 49.952 1112.29 51.232C1112.88 52.496 1113.18 54 1113.18 55.744C1113.18 57.472 1112.88 58.976 1112.29 60.256C1111.7 61.536 1110.9 62.52 1109.91 63.208C1108.92 63.896 1107.82 64.24 1106.6 64.24ZM1106.55 62.584C1107.5 62.584 1108.33 62.32 1109.05 61.792C1109.78 61.248 1110.36 60.472 1110.78 59.464C1111.19 58.44 1111.4 57.192 1111.4 55.72C1111.4 54.264 1111.19 53.032 1110.78 52.024C1110.36 51 1109.78 50.224 1109.05 49.696C1108.33 49.168 1107.5 48.904 1106.55 48.904C1105.62 48.904 1104.79 49.168 1104.06 49.696C1103.34 50.224 1102.77 50.992 1102.35 52C1101.94 53.008 1101.73 54.248 1101.73 55.72C1101.73 57.192 1101.94 58.44 1102.35 59.464C1102.77 60.472 1103.34 61.248 1104.06 61.792C1104.79 62.32 1105.62 62.584 1106.55 62.584ZM1122.37 64.24C1121.16 64.24 1120.05 63.896 1119.04 63.208C1118.03 62.504 1117.22 61.512 1116.61 60.232C1116.02 58.952 1115.73 57.448 1115.73 55.72C1115.73 53.976 1116.02 52.48 1116.61 51.232C1117.21 49.968 1118 48.992 1118.99 48.304C1120 47.6 1121.11 47.248 1122.33 47.248C1123.56 47.248 1124.67 47.592 1125.66 48.28C1126.67 48.968 1127.47 49.952 1128.06 51.232C1128.65 52.496 1128.95 54 1128.95 55.744C1128.95 57.472 1128.65 58.976 1128.06 60.256C1127.47 61.536 1126.68 62.52 1125.69 63.208C1124.69 63.896 1123.59 64.24 1122.37 64.24ZM1122.33 62.584C1123.27 62.584 1124.1 62.32 1124.82 61.792C1125.56 61.248 1126.13 60.472 1126.55 59.464C1126.97 58.44 1127.17 57.192 1127.17 55.72C1127.17 54.264 1126.97 53.032 1126.55 52.024C1126.13 51 1125.56 50.224 1124.82 49.696C1124.1 49.168 1123.27 48.904 1122.33 48.904C1121.4 48.904 1120.57 49.168 1119.83 49.696C1119.11 50.224 1118.54 50.992 1118.13 52C1117.71 53.008 1117.5 54.248 1117.5 55.72C1117.5 57.192 1117.71 58.44 1118.13 59.464C1118.54 60.472 1119.11 61.248 1119.83 61.792C1120.57 62.32 1121.4 62.584 1122.33 62.584ZM1138.15 64.24C1136.93 64.24 1135.82 63.896 1134.81 63.208C1133.8 62.504 1132.99 61.512 1132.39 60.232C1131.79 58.952 1131.5 57.448 1131.5 55.72C1131.5 53.976 1131.79 52.48 1132.39 51.232C1132.98 49.968 1133.77 48.992 1134.76 48.304C1135.77 47.6 1136.88 47.248 1138.1 47.248C1139.33 47.248 1140.44 47.592 1141.43 48.28C1142.44 48.968 1143.24 49.952 1143.83 51.232C1144.43 52.496 1144.72 54 1144.72 55.744C1144.72 57.472 1144.43 58.976 1143.83 60.256C1143.24 61.536 1142.45 62.52 1141.46 63.208C1140.47 63.896 1139.36 64.24 1138.15 64.24ZM1138.1 62.584C1139.04 62.584 1139.87 62.32 1140.59 61.792C1141.33 61.248 1141.91 60.472 1142.32 59.464C1142.74 58.44 1142.95 57.192 1142.95 55.72C1142.95 54.264 1142.74 53.032 1142.32 52.024C1141.91 51 1141.33 50.224 1140.59 49.696C1139.87 49.168 1139.04 48.904 1138.1 48.904C1137.17 48.904 1136.34 49.168 1135.6 49.696C1134.88 50.224 1134.31 50.992 1133.9 52C1133.48 53.008 1133.27 54.248 1133.27 55.72C1133.27 57.192 1133.48 58.44 1133.9 59.464C1134.31 60.472 1134.88 61.248 1135.6 61.792C1136.34 62.32 1137.17 62.584 1138.1 62.584Z" fill="#080806"/>
<path d="M64.128 583.24C62.896 583.24 61.76 583.024 60.72 582.592C59.696 582.16 58.808 581.552 58.056 580.768C57.304 579.984 56.72 579.08 56.304 578.056C55.904 577.016 55.704 575.904 55.704 574.72C55.704 573.52 55.904 572.408 56.304 571.384C56.72 570.36 57.296 569.464 58.032 568.696C58.784 567.928 59.672 567.328 60.696 566.896C61.72 566.464 62.848 566.248 64.08 566.248C65.312 566.248 66.448 566.464 67.488 566.896C68.528 567.328 69.416 567.928 70.152 568.696C70.904 569.464 71.48 570.368 71.88 571.408C72.296 572.432 72.504 573.544 72.504 574.744C72.504 575.928 72.296 577.04 71.88 578.08C71.48 579.104 70.904 580.008 70.152 580.792C69.4 581.56 68.512 582.16 67.488 582.592C66.48 583.024 65.36 583.24 64.128 583.24ZM64.248 579.448C63.368 579.448 62.568 579.24 61.848 578.824C61.128 578.408 60.56 577.84 60.144 577.12C59.728 576.4 59.52 575.6 59.52 574.72C59.52 573.824 59.728 573.024 60.144 572.32C60.56 571.616 61.128 571.056 61.848 570.64C62.584 570.224 63.392 570.016 64.272 570.016C64.944 570.016 65.576 570.144 66.168 570.4C66.76 570.64 67.272 571 67.704 571.48L66.696 572.536C66.408 572.2 66.056 571.944 65.64 571.768C65.224 571.592 64.768 571.504 64.272 571.504C63.696 571.504 63.168 571.64 62.688 571.912C62.208 572.184 61.832 572.56 61.56 573.04C61.288 573.52 61.152 574.08 61.152 574.72C61.152 575.36 61.288 575.928 61.56 576.424C61.832 576.904 62.208 577.288 62.688 577.576C63.168 577.848 63.696 577.984 64.272 577.984C64.784 577.984 65.248 577.896 65.664 577.72C66.08 577.528 66.44 577.264 66.744 576.928L67.728 577.984C67.312 578.448 66.8 578.808 66.192 579.064C65.584 579.32 64.936 579.448 64.248 579.448ZM64.08 582.328C65.552 582.328 66.848 581.992 67.968 581.32C69.088 580.648 69.96 579.736 70.584 578.584C71.224 577.432 71.544 576.144 71.544 574.72C71.544 573.296 71.224 572.016 70.584 570.88C69.96 569.744 69.088 568.84 67.968 568.168C66.848 567.496 65.552 567.16 64.08 567.16C62.608 567.16 61.312 567.496 60.192 568.168C59.072 568.824 58.2 569.72 57.576 570.856C56.968 571.992 56.664 573.28 56.664 574.72C56.664 576.144 56.976 577.432 57.6 578.584C58.224 579.736 59.096 580.648 60.216 581.32C61.336 581.992 62.624 582.328 64.08 582.328ZM85.3114 583.24C84.2234 583.24 83.2474 583.032 82.3834 582.616C81.5194 582.2 80.7914 581.6 80.1994 580.816L81.3754 579.64C81.7754 580.248 82.3114 580.728 82.9834 581.08C83.6714 581.416 84.4394 581.584 85.2874 581.584C86.0874 581.584 86.7914 581.432 87.3994 581.128C88.0074 580.808 88.4794 580.368 88.8154 579.808C89.1674 579.232 89.3434 578.56 89.3434 577.792C89.3434 577.008 89.1754 576.336 88.8394 575.776C88.5034 575.2 88.0474 574.76 87.4714 574.456C86.8954 574.152 86.2474 574 85.5274 574C84.8394 574 84.2074 574.096 83.6314 574.288C83.0714 574.464 82.5594 574.752 82.0954 575.152L82.0474 574C82.3354 573.68 82.6634 573.416 83.0314 573.208C83.3994 573 83.8074 572.84 84.2554 572.728C84.7194 572.616 85.2314 572.56 85.7914 572.56C86.8954 572.56 87.8474 572.8 88.6474 573.28C89.4474 573.744 90.0554 574.376 90.4714 575.176C90.9034 575.976 91.1194 576.88 91.1194 577.888C91.1194 578.928 90.8714 579.848 90.3754 580.648C89.8794 581.448 89.1914 582.08 88.3114 582.544C87.4474 583.008 86.4474 583.24 85.3114 583.24ZM82.0954 575.152L81.1594 574.192L81.8794 566.488H83.4874L82.6954 574.36L82.0954 575.152ZM82.3114 568.048L81.8794 566.488H90.3754V568.048H82.3114ZM93.1854 581.92L99.3054 575.536C100.009 574.784 100.553 574.152 100.937 573.64C101.337 573.128 101.609 572.664 101.753 572.248C101.913 571.816 101.993 571.368 101.993 570.904C101.993 569.96 101.697 569.224 101.105 568.696C100.513 568.152 99.7294 567.88 98.7534 567.88C97.8574 567.88 97.0734 568.096 96.4014 568.528C95.7294 568.944 95.1294 569.576 94.6014 570.424L93.3774 569.344C94.0174 568.336 94.7854 567.568 95.6814 567.04C96.5774 566.512 97.6174 566.248 98.8014 566.248C99.7934 566.248 100.657 566.44 101.393 566.824C102.145 567.208 102.721 567.752 103.121 568.456C103.537 569.16 103.745 569.984 103.745 570.928C103.745 571.584 103.657 572.184 103.481 572.728C103.305 573.256 102.993 573.816 102.545 574.408C102.113 574.984 101.497 575.688 100.697 576.52L95.5134 581.848L93.1854 581.92ZM93.1854 583V581.92L94.6254 581.416H104.153V583H93.1854ZM113.154 583.24C111.938 583.24 110.826 582.896 109.818 582.208C108.81 581.504 108.002 580.512 107.394 579.232C106.802 577.952 106.506 576.448 106.506 574.72C106.506 572.976 106.802 571.48 107.394 570.232C107.986 568.968 108.778 567.992 109.77 567.304C110.778 566.6 111.89 566.248 113.106 566.248C114.338 566.248 115.45 566.592 116.442 567.28C117.45 567.968 118.25 568.952 118.842 570.232C119.434 571.496 119.73 573 119.73 574.744C119.73 576.472 119.434 577.976 118.842 579.256C118.25 580.536 117.458 581.52 116.466 582.208C115.474 582.896 114.37 583.24 113.154 583.24ZM113.106 581.584C114.05 581.584 114.882 581.32 115.602 580.792C116.338 580.248 116.914 579.472 117.33 578.464C117.746 577.44 117.954 576.192 117.954 574.72C117.954 573.264 117.746 572.032 117.33 571.024C116.914 570 116.338 569.224 115.602 568.696C114.882 568.168 114.05 567.904 113.106 567.904C112.178 567.904 111.346 568.168 110.61 568.696C109.89 569.224 109.322 569.992 108.906 571C108.49 572.008 108.282 573.248 108.282 574.72C108.282 576.192 108.49 577.44 108.906 578.464C109.322 579.472 109.89 580.248 110.61 580.792C111.346 581.32 112.178 581.584 113.106 581.584ZM121.826 581.92L127.946 575.536C128.65 574.784 129.194 574.152 129.578 573.64C129.978 573.128 130.25 572.664 130.394 572.248C130.554 571.816 130.634 571.368 130.634 570.904C130.634 569.96 130.338 569.224 129.746 568.696C129.154 568.152 128.37 567.88 127.394 567.88C126.498 567.88 125.714 568.096 125.042 568.528C124.37 568.944 123.77 569.576 123.242 570.424L122.018 569.344C122.658 568.336 123.426 567.568 124.322 567.04C125.218 566.512 126.258 566.248 127.442 566.248C128.434 566.248 129.298 566.44 130.034 566.824C130.786 567.208 131.362 567.752 131.762 568.456C132.178 569.16 132.386 569.984 132.386 570.928C132.386 571.584 132.298 572.184 132.122 572.728C131.946 573.256 131.634 573.816 131.186 574.408C130.754 574.984 130.138 575.688 129.338 576.52L124.154 581.848L121.826 581.92ZM121.826 583V581.92L123.266 581.416H132.794V583H121.826Z" fill="#080806"/>
<path d="M63.6 61.24C62.416 61.24 61.312 61.024 60.288 60.592C59.28 60.16 58.4 59.552 57.648 58.768C56.896 57.984 56.312 57.08 55.896 56.056C55.496 55.016 55.296 53.904 55.296 52.72C55.296 51.536 55.496 50.432 55.896 49.408C56.312 48.368 56.888 47.464 57.624 46.696C58.376 45.928 59.256 45.328 60.264 44.896C61.272 44.464 62.36 44.248 63.528 44.248C64.792 44.248 65.92 44.472 66.912 44.92C67.92 45.368 68.8 45.984 69.552 46.768L68.352 47.968C67.776 47.328 67.08 46.832 66.264 46.48C65.448 46.112 64.536 45.928 63.528 45.928C62.6 45.928 61.744 46.096 60.96 46.432C60.192 46.768 59.512 47.248 58.92 47.872C58.344 48.48 57.896 49.2 57.576 50.032C57.272 50.848 57.12 51.744 57.12 52.72C57.12 53.696 57.28 54.6 57.6 55.432C57.92 56.264 58.368 56.992 58.944 57.616C59.52 58.224 60.2 58.696 60.984 59.032C61.768 59.368 62.624 59.536 63.552 59.536C64.608 59.536 65.544 59.352 66.36 58.984C67.192 58.616 67.896 58.112 68.472 57.472L69.672 58.696C68.936 59.48 68.056 60.104 67.032 60.568C66.008 61.016 64.864 61.24 63.6 61.24ZM72.3446 61V49.72H74.0486V61H72.3446ZM73.1846 47.272C72.8646 47.272 72.5926 47.16 72.3686 46.936C72.1446 46.696 72.0326 46.416 72.0326 46.096C72.0326 45.76 72.1446 45.48 72.3686 45.256C72.5926 45.032 72.8646 44.92 73.1846 44.92C73.5366 44.92 73.8166 45.032 74.0246 45.256C74.2486 45.48 74.3606 45.76 74.3606 46.096C74.3606 46.416 74.2486 46.696 74.0246 46.936C73.8166 47.16 73.5366 47.272 73.1846 47.272ZM79.206 61V44.968H80.886V61H79.206ZM76.35 51.232V49.72H83.718V51.232H76.35ZM86.0321 61V49.72H87.7361V61H86.0321ZM86.8721 47.272C86.5521 47.272 86.2801 47.16 86.0561 46.936C85.8321 46.696 85.7201 46.416 85.7201 46.096C85.7201 45.76 85.8321 45.48 86.0561 45.256C86.2801 45.032 86.5521 44.92 86.8721 44.92C87.2241 44.92 87.5041 45.032 87.7121 45.256C87.9361 45.48 88.0481 45.76 88.0481 46.096C88.0481 46.416 87.9361 46.696 87.7121 46.936C87.5041 47.16 87.2241 47.272 86.8721 47.272ZM90.1575 60.064L97.2855 50.632H99.2775L92.1495 60.064H90.1575ZM90.1575 61V60.064L91.6215 59.464H99.1335V61H90.1575ZM90.5655 51.232V49.72H99.2775V50.632L97.6935 51.232H90.5655ZM106.732 61.24C105.596 61.24 104.58 60.984 103.684 60.472C102.788 59.96 102.076 59.256 101.548 58.36C101.036 57.464 100.78 56.456 100.78 55.336C100.78 54.232 101.036 53.24 101.548 52.36C102.06 51.464 102.756 50.76 103.636 50.248C104.516 49.736 105.5 49.48 106.588 49.48C107.612 49.48 108.516 49.712 109.3 50.176C110.1 50.64 110.724 51.288 111.172 52.12C111.636 52.936 111.868 53.88 111.868 54.952C111.868 55.08 111.86 55.232 111.844 55.408C111.828 55.568 111.796 55.76 111.748 55.984H101.98V54.544H110.836L110.236 55.072C110.252 54.24 110.108 53.528 109.804 52.936C109.516 52.328 109.092 51.864 108.532 51.544C107.988 51.208 107.324 51.04 106.54 51.04C105.724 51.04 105.012 51.216 104.404 51.568C103.796 51.92 103.316 52.416 102.964 53.056C102.628 53.68 102.46 54.424 102.46 55.288C102.46 56.152 102.636 56.912 102.988 57.568C103.356 58.224 103.86 58.736 104.5 59.104C105.156 59.472 105.908 59.656 106.756 59.656C107.444 59.656 108.076 59.536 108.652 59.296C109.228 59.04 109.716 58.664 110.116 58.168L111.196 59.272C110.668 59.896 110.012 60.384 109.228 60.736C108.46 61.072 107.628 61.24 106.732 61.24ZM122.646 61V54.376C122.646 53.384 122.35 52.584 121.758 51.976C121.182 51.352 120.414 51.04 119.454 51.04C118.798 51.04 118.222 51.184 117.726 51.472C117.23 51.76 116.838 52.152 116.55 52.648C116.262 53.144 116.118 53.712 116.118 54.352L115.35 53.92C115.35 53.072 115.55 52.312 115.95 51.64C116.35 50.968 116.886 50.44 117.558 50.056C118.246 49.672 119.03 49.48 119.91 49.48C120.774 49.48 121.542 49.688 122.214 50.104C122.886 50.52 123.406 51.08 123.774 51.784C124.158 52.488 124.35 53.256 124.35 54.088V61H122.646ZM114.438 61V49.72H116.118V61H114.438ZM130.949 61.24C130.341 61.24 129.757 61.16 129.197 61C128.637 60.824 128.125 60.584 127.661 60.28C127.213 59.976 126.821 59.616 126.485 59.2L127.565 58.096C128.013 58.64 128.517 59.048 129.077 59.32C129.653 59.576 130.293 59.704 130.997 59.704C131.749 59.704 132.333 59.56 132.749 59.272C133.181 58.984 133.397 58.584 133.397 58.072C133.397 57.592 133.245 57.216 132.941 56.944C132.637 56.672 132.245 56.456 131.765 56.296C131.301 56.136 130.805 55.984 130.277 55.84C129.749 55.68 129.245 55.488 128.765 55.264C128.285 55.024 127.893 54.696 127.589 54.28C127.301 53.864 127.157 53.32 127.157 52.648C127.157 52.008 127.309 51.456 127.613 50.992C127.933 50.512 128.381 50.144 128.957 49.888C129.549 49.616 130.245 49.48 131.045 49.48C131.893 49.48 132.661 49.632 133.349 49.936C134.037 50.24 134.589 50.688 135.005 51.28L133.925 52.36C133.589 51.928 133.165 51.6 132.653 51.376C132.157 51.136 131.597 51.016 130.973 51.016C130.253 51.016 129.701 51.16 129.317 51.448C128.949 51.72 128.765 52.08 128.765 52.528C128.765 52.96 128.917 53.304 129.221 53.56C129.525 53.8 129.909 54 130.373 54.16C130.853 54.304 131.357 54.456 131.885 54.616C132.413 54.76 132.917 54.96 133.397 55.216C133.877 55.456 134.261 55.792 134.549 56.224C134.853 56.64 135.005 57.208 135.005 57.928C135.005 58.936 134.637 59.744 133.901 60.352C133.181 60.944 132.197 61.24 130.949 61.24ZM147.933 61.24C146.845 61.24 145.853 60.976 144.957 60.448C144.077 59.92 143.373 59.208 142.845 58.312C142.333 57.416 142.077 56.416 142.077 55.312C142.077 54.224 142.333 53.24 142.845 52.36C143.373 51.48 144.077 50.784 144.957 50.272C145.853 49.744 146.845 49.48 147.933 49.48C149.037 49.48 150.029 49.736 150.909 50.248C151.789 50.76 152.485 51.464 152.997 52.36C153.525 53.24 153.789 54.224 153.789 55.312C153.789 56.432 153.525 57.44 152.997 58.336C152.485 59.216 151.789 59.92 150.909 60.448C150.029 60.976 149.037 61.24 147.933 61.24ZM147.933 59.608C148.733 59.608 149.437 59.424 150.045 59.056C150.669 58.688 151.157 58.176 151.509 57.52C151.877 56.864 152.061 56.128 152.061 55.312C152.061 54.496 151.877 53.776 151.509 53.152C151.157 52.512 150.669 52.008 150.045 51.64C149.437 51.272 148.733 51.088 147.933 51.088C147.149 51.088 146.445 51.272 145.821 51.64C145.197 52.008 144.709 52.512 144.357 53.152C144.005 53.776 143.829 54.496 143.829 55.312C143.829 56.144 144.005 56.888 144.357 57.544C144.709 58.184 145.197 58.688 145.821 59.056C146.445 59.424 147.149 59.608 147.933 59.608ZM157.719 61V47.8C157.719 47.016 157.887 46.32 158.223 45.712C158.575 45.104 159.055 44.632 159.663 44.296C160.287 43.944 160.991 43.768 161.775 43.768C162.383 43.768 162.919 43.88 163.383 44.104C163.847 44.312 164.271 44.608 164.655 44.992L163.551 46.096C163.295 45.84 163.023 45.656 162.735 45.544C162.463 45.416 162.143 45.352 161.775 45.352C161.023 45.352 160.439 45.576 160.023 46.024C159.623 46.456 159.423 47.064 159.423 47.848V61H157.719ZM154.887 51.232V49.72H163.191V51.232H154.887ZM172.44 61V44.968H174.12V61H172.44ZM169.584 51.232V49.72H176.952V51.232H169.584ZM187.475 61V54.376C187.475 53.384 187.179 52.584 186.587 51.976C186.011 51.352 185.243 51.04 184.283 51.04C183.627 51.04 183.051 51.184 182.555 51.472C182.059 51.76 181.667 52.152 181.379 52.648C181.091 53.144 180.947 53.712 180.947 54.352L180.179 53.92C180.179 53.072 180.379 52.312 180.779 51.64C181.179 50.968 181.715 50.44 182.387 50.056C183.075 49.672 183.859 49.48 184.739 49.48C185.603 49.48 186.371 49.68 187.043 50.08C187.715 50.464 188.235 51 188.603 51.688C188.987 52.376 189.179 53.176 189.179 54.088V61H187.475ZM179.267 61V44.008H180.947V61H179.267ZM197.529 61.24C196.393 61.24 195.377 60.984 194.481 60.472C193.585 59.96 192.873 59.256 192.345 58.36C191.833 57.464 191.577 56.456 191.577 55.336C191.577 54.232 191.833 53.24 192.345 52.36C192.857 51.464 193.553 50.76 194.433 50.248C195.313 49.736 196.297 49.48 197.385 49.48C198.409 49.48 199.313 49.712 200.097 50.176C200.897 50.64 201.521 51.288 201.969 52.12C202.433 52.936 202.665 53.88 202.665 54.952C202.665 55.08 202.657 55.232 202.641 55.408C202.625 55.568 202.593 55.76 202.545 55.984H192.777V54.544H201.633L201.033 55.072C201.049 54.24 200.905 53.528 200.601 52.936C200.313 52.328 199.889 51.864 199.329 51.544C198.785 51.208 198.121 51.04 197.337 51.04C196.521 51.04 195.809 51.216 195.201 51.568C194.593 51.92 194.113 52.416 193.761 53.056C193.425 53.68 193.257 54.424 193.257 55.288C193.257 56.152 193.433 56.912 193.785 57.568C194.153 58.224 194.657 58.736 195.297 59.104C195.953 59.472 196.705 59.656 197.553 59.656C198.241 59.656 198.873 59.536 199.449 59.296C200.025 59.04 200.513 58.664 200.913 58.168L201.993 59.272C201.465 59.896 200.809 60.384 200.025 60.736C199.257 61.072 198.425 61.24 197.529 61.24ZM210.8 61V44.488H212.552V61H210.8ZM224.576 61V54.376C224.576 53.384 224.28 52.584 223.688 51.976C223.112 51.352 222.344 51.04 221.384 51.04C220.728 51.04 220.152 51.184 219.656 51.472C219.16 51.76 218.768 52.152 218.48 52.648C218.192 53.144 218.048 53.712 218.048 54.352L217.28 53.92C217.28 53.072 217.48 52.312 217.88 51.64C218.28 50.968 218.816 50.44 219.488 50.056C220.176 49.672 220.96 49.48 221.84 49.48C222.704 49.48 223.472 49.688 224.144 50.104C224.816 50.52 225.336 51.08 225.704 51.784C226.088 52.488 226.28 53.256 226.28 54.088V61H224.576ZM216.368 61V49.72H218.048V61H216.368ZM231.034 61V44.968H232.714V61H231.034ZM228.178 51.232V49.72H235.546V51.232H228.178ZM242.67 61.24C241.534 61.24 240.518 60.984 239.622 60.472C238.726 59.96 238.014 59.256 237.486 58.36C236.974 57.464 236.718 56.456 236.718 55.336C236.718 54.232 236.974 53.24 237.486 52.36C237.998 51.464 238.694 50.76 239.574 50.248C240.454 49.736 241.438 49.48 242.526 49.48C243.55 49.48 244.454 49.712 245.238 50.176C246.038 50.64 246.662 51.288 247.11 52.12C247.574 52.936 247.806 53.88 247.806 54.952C247.806 55.08 247.798 55.232 247.782 55.408C247.766 55.568 247.734 55.76 247.686 55.984H237.918V54.544H246.774L246.174 55.072C246.19 54.24 246.046 53.528 245.742 52.936C245.454 52.328 245.03 51.864 244.47 51.544C243.926 51.208 243.262 51.04 242.478 51.04C241.662 51.04 240.95 51.216 240.342 51.568C239.734 51.92 239.254 52.416 238.902 53.056C238.566 53.68 238.398 54.424 238.398 55.288C238.398 56.152 238.574 56.912 238.926 57.568C239.294 58.224 239.798 58.736 240.438 59.104C241.094 59.472 241.846 59.656 242.694 59.656C243.382 59.656 244.014 59.536 244.59 59.296C245.166 59.04 245.654 58.664 246.054 58.168L247.134 59.272C246.606 59.896 245.95 60.384 245.166 60.736C244.398 61.072 243.566 61.24 242.67 61.24ZM250.376 61V49.72H252.056V61H250.376ZM252.056 54.424L251.36 54.112C251.36 52.688 251.704 51.56 252.392 50.728C253.096 49.896 254.056 49.48 255.272 49.48C255.832 49.48 256.344 49.584 256.808 49.792C257.272 49.984 257.704 50.296 258.104 50.728L257 51.904C256.728 51.6 256.424 51.384 256.088 51.256C255.768 51.128 255.4 51.064 254.984 51.064C254.12 51.064 253.416 51.352 252.872 51.928C252.328 52.488 252.056 53.32 252.056 54.424ZM268.193 61V54.376C268.193 53.384 267.897 52.584 267.305 51.976C266.729 51.352 265.961 51.04 265.001 51.04C264.345 51.04 263.769 51.184 263.273 51.472C262.777 51.76 262.385 52.152 262.097 52.648C261.809 53.144 261.665 53.712 261.665 54.352L260.897 53.92C260.897 53.072 261.097 52.312 261.497 51.64C261.897 50.968 262.433 50.44 263.105 50.056C263.793 49.672 264.577 49.48 265.457 49.48C266.321 49.48 267.089 49.688 267.761 50.104C268.433 50.52 268.953 51.08 269.321 51.784C269.705 52.488 269.897 53.256 269.897 54.088V61H268.193ZM259.985 61V49.72H261.665V61H259.985ZM278.248 61.24C277.112 61.24 276.096 60.984 275.2 60.472C274.304 59.96 273.592 59.256 273.064 58.36C272.552 57.464 272.296 56.456 272.296 55.336C272.296 54.232 272.552 53.24 273.064 52.36C273.576 51.464 274.272 50.76 275.152 50.248C276.032 49.736 277.016 49.48 278.104 49.48C279.128 49.48 280.032 49.712 280.816 50.176C281.616 50.64 282.24 51.288 282.688 52.12C283.152 52.936 283.384 53.88 283.384 54.952C283.384 55.08 283.376 55.232 283.36 55.408C283.344 55.568 283.312 55.76 283.264 55.984H273.496V54.544H282.352L281.752 55.072C281.768 54.24 281.624 53.528 281.32 52.936C281.032 52.328 280.608 51.864 280.048 51.544C279.504 51.208 278.84 51.04 278.056 51.04C277.24 51.04 276.528 51.216 275.92 51.568C275.312 51.92 274.832 52.416 274.48 53.056C274.144 53.68 273.976 54.424 273.976 55.288C273.976 56.152 274.152 56.912 274.504 57.568C274.872 58.224 275.376 58.736 276.016 59.104C276.672 59.472 277.424 59.656 278.272 59.656C278.96 59.656 279.592 59.536 280.168 59.296C280.744 59.04 281.232 58.664 281.632 58.168L282.712 59.272C282.184 59.896 281.528 60.384 280.744 60.736C279.976 61.072 279.144 61.24 278.248 61.24ZM287.284 61V44.968H288.964V61H287.284ZM284.428 51.232V49.72H291.796V51.232H284.428Z" fill="#080806"/>
</svg>
